# xmcd
#
# Track frame offsets:
# 150
# 15201
# 32857
# 48436
# 69447
# 84395
# 99202
# 113672
# 133566
# 153084
# 169572
# 182384
# 202456
# 216521
# 232890
# 247351
# 263064
# 278522
# 294083
# 307888
#
# Disc length: 4305 seconds
#
#
# Revision: 0
# Processed by: cddbd v1.5.1PL2 Copyright (c) Steve Scherf et al.
# Submitted via: FreeRIP 2.944 
#
DISCID=0410cf14
DTITLE=Guilherme e Santiago - As 20 mais
DYEAR=2006
DGENRE=Country
TTITLE0=Magia e Mistério
TTITLE1=E Pra Sempre Te Amar
TTITLE2=Perdi Você
TTITLE3=O Nosso Amor
TTITLE4=Ai Que Trem Bom
TTITLE5=Coração
TTITLE6=Vem Sambar Comigo
TTITLE7=Azul
TTITLE8=Só Falta Você
TTITLE9=Valeu Esperar
TTITLE10=Não Adiantou Ir Pescar
TTITLE11=Dona Do Meu Coração
TTITLE12=Peão Não Chora
TTITLE13=Eu Gosto De Mulher
TTITLE14=O Som Do Povo
TTITLE15=Porque
TTITLE16=Vem Brincar De Amor
TTITLE17=Se Essa Moda Pega
TTITLE18=Preciso Deste Amor
TTITLE19=Do Outro Lado Da Cidade
EXTD=
EXTT0=
EXTT1=
EXTT2=
EXTT3=
EXTT4=
EXTT5=
EXTT6=
EXTT7=
EXTT8=
EXTT9=
EXTT10=
EXTT11=
EXTT12=
EXTT13=
EXTT14=
EXTT15=
EXTT16=
EXTT17=
EXTT18=
EXTT19=
PLAYORDER=
